<svg id="Layer_1" data-name="Layer 1" xmlns="http://www.w3.org/2000/svg" viewBox="0 0 599.69 640"><defs><style>.cls-1{fill:#fff;}</style></defs><title>logomark-white</title><path class="cls-1" d="M649.92-20H150.08c-27.57,0-49.93,25.62-49.93,57.23V562.66c0,47.6,47.75,74.4,80.55,45.21l63.13-56.17a46,46,0,0,1,30.61-12H515.26c27.58,0,49.93-25.62,49.93-57.23V437c0-31.61,22.35-57.23,49.93-57.23h34.8c27.57,0,49.93-25.63,49.93-57.24V37.23C699.85,5.62,677.49-20,649.92-20ZM504.4,303.81,357.69,383.9C319.55,404.72,273,377.11,273,333.66V173.48c0-43.45,46.52-71.06,84.66-50.24L504.4,203.33C544.14,225,544.14,282.11,504.4,303.81Z" transform="translate(-100.15 20)"/></svg>