<svg id="Layer_1" data-name="Layer 1" xmlns="http://www.w3.org/2000/svg" viewBox="0 0 640 519"><defs><style>.cls-1{fill:#fff;}</style></defs><title>original-stacked-white</title><path class="cls-1" d="M418.3,40.5H206.72c-10.61,0-19.22,9.86-19.22,22V264.76c0,18.33,18.38,28.64,31,17.41l24.29-21.62a17.72,17.72,0,0,1,11.79-4.63h98.25c10.61,0,19.22-9.86,19.22-22v-17.5c0-12.17,8.6-22,19.21-22h27c10.62,0,19.22-9.86,19.22-22V62.53C437.52,50.36,428.92,40.5,418.3,40.5ZM348.66,165.13,292.19,196a22,22,0,0,1-32.58-19.34V115a22,22,0,0,1,32.58-19.33l56.47,30.82A22,22,0,0,1,348.66,165.13Z" transform="translate(-80 -40.5)"/><path class="cls-1" d="M593.28,194.36H447.16c-10.61,0-19.22,9.86-19.22,22v17.5c0,12.17-8.6,22-19.21,22h-27c-10.62,0-19.22,9.86-19.22,22v109.8c0,12.16,8.6,22,19.22,22H545.41a17.75,17.75,0,0,1,11.79,4.62L581.49,436c12.63,11.24,31,.92,31-17.4V216.39C612.5,204.22,603.89,194.36,593.28,194.36ZM489.78,338.59a21.24,21.24,0,1,1-42.48,0V277.23a21.24,21.24,0,1,1,42.48,0Zm59.09,0a21.24,21.24,0,1,1-42.48,0V277.23a21.24,21.24,0,1,1,42.48,0Z" transform="translate(-80 -40.5)"/><path class="cls-1" d="M102,557.11a7.52,7.52,0,0,1-2.21-5.68V510.59H87.55q-3.83,0-5.68-1.61a6.09,6.09,0,0,1-1.87-4.9,6,6,0,0,1,1.87-4.85q1.86-1.58,5.68-1.57h40.58q3.83,0,5.68,1.57a6,6,0,0,1,1.87,4.85,6.09,6.09,0,0,1-1.87,4.9q-1.86,1.61-5.68,1.61H115.9v40.84a7.48,7.48,0,0,1-2.21,5.68,9.11,9.11,0,0,1-11.71,0Z" transform="translate(-80 -40.5)"/><path class="cls-1" d="M160.5,557.11a7.48,7.48,0,0,1-2.21-5.68V510.59H146.06q-3.83,0-5.68-1.61a6.09,6.09,0,0,1-1.87-4.9,6,6,0,0,1,1.87-4.85q1.86-1.58,5.68-1.57h40.58c2.55,0,4.44.52,5.69,1.57a6,6,0,0,1,1.86,4.85,6.12,6.12,0,0,1-1.86,4.9c-1.25,1.07-3.14,1.61-5.69,1.61H174.42v40.84a7.52,7.52,0,0,1-2.21,5.68,9.11,9.11,0,0,1-11.71,0Z" transform="translate(-80 -40.5)"/><path class="cls-1" d="M249.17,498.27a7.27,7.27,0,0,1,3.81-1,8.81,8.81,0,0,1,5.64,2,6.12,6.12,0,0,1,2.51,5,6.76,6.76,0,0,1-.78,3l-22.89,47.27a7.94,7.94,0,0,1-3.38,3.59,10,10,0,0,1-9.72,0,7.94,7.94,0,0,1-3.38-3.59l-22.9-47.27a6.72,6.72,0,0,1-.69-3,6.14,6.14,0,0,1,2.6-5,9.19,9.19,0,0,1,5.81-2,7.52,7.52,0,0,1,3.86,1,6.7,6.7,0,0,1,2.73,3.12l17.09,37,17-37A6.79,6.79,0,0,1,249.17,498.27Z" transform="translate(-80 -40.5)"/><path class="cls-1" d="M275.35,557.46A23.36,23.36,0,0,1,266,552a3.11,3.11,0,0,1-1.12-2.51,2.5,2.5,0,0,1,.56-1.65,1.63,1.63,0,0,1,1.26-.69,3.47,3.47,0,0,1,2,.86,28.87,28.87,0,0,0,19,6.77q7.89,0,12.18-3.17a10.49,10.49,0,0,0,4.29-9,7.39,7.39,0,0,0-2.08-5.47,14.28,14.28,0,0,0-5.29-3.25,73.28,73.28,0,0,0-8.58-2.38,86.81,86.81,0,0,1-11.49-3.21,18.78,18.78,0,0,1-7.42-5c-2-2.22-3-5.22-3-9a15.54,15.54,0,0,1,2.74-9.06,17.69,17.69,0,0,1,7.67-6.11A28,28,0,0,1,288.05,497a32.38,32.38,0,0,1,11.28,1.95,22.92,22.92,0,0,1,8.76,5.59,3.51,3.51,0,0,1,1.12,2.52,2.52,2.52,0,0,1-.56,1.65,1.63,1.63,0,0,1-1.26.69,3.42,3.42,0,0,1-2-.87,33.17,33.17,0,0,0-8.46-5.29,24.42,24.42,0,0,0-8.89-1.47q-7.71,0-12.05,3.29a10.91,10.91,0,0,0-4.34,9.2,8.55,8.55,0,0,0,1.91,5.77,13.28,13.28,0,0,0,5,3.51,54.91,54.91,0,0,0,7.93,2.51l2.26.52q7,1.74,11.1,3.21a17.12,17.12,0,0,1,6.89,4.55,11.82,11.82,0,0,1,2.82,8.29,14.86,14.86,0,0,1-2.73,8.8,17.64,17.64,0,0,1-7.72,6,28.79,28.79,0,0,1-11.4,2.13A37.79,37.79,0,0,1,275.35,557.46Z" transform="translate(-80 -40.5)"/><path class="cls-1" d="M337.44,557.07a2,2,0,0,1-.78,1.65,3.87,3.87,0,0,1-2.51.52l-2.43-.18q-6.6-.42-9.76-4t-3.16-11V521h-6.6a2.28,2.28,0,0,1-1.64-.56,2,2,0,0,1-.61-1.52,2.09,2.09,0,0,1,.61-1.56,2.23,2.23,0,0,1,1.64-.61h6.6V506a2.73,2.73,0,0,1,.69-2,2.59,2.59,0,0,1,1.91-.69,2.73,2.73,0,0,1,2,.69,2.63,2.63,0,0,1,.74,2v10.75h10.49a2.35,2.35,0,0,1,1.73.61,2.09,2.09,0,0,1,.61,1.56,2,2,0,0,1-.61,1.52,2.42,2.42,0,0,1-1.73.56H324.09v23.33q0,5.38,2.08,7.68c1.39,1.53,3.55,2.41,6.5,2.64l2.34.18Q337.44,555.08,337.44,557.07Z" transform="translate(-80 -40.5)"/><path class="cls-1" d="M364.8,516.31a2,2,0,0,1,.69,1.73c0,1.45-.87,2.26-2.6,2.43l-2.6.26q-6.17.62-9.15,4.43a14,14,0,0,0-3,8.93v22.46a2.69,2.69,0,0,1-.69,2,2.55,2.55,0,0,1-1.91.7,2.7,2.7,0,0,1-2-.7,2.59,2.59,0,0,1-.73-2v-38a2.61,2.61,0,0,1,.73-2,2.73,2.73,0,0,1,2-.69,2.47,2.47,0,0,1,1.82.69,2.55,2.55,0,0,1,.7,1.91v5.63q3.56-7.46,13.18-8.15l1.21-.08A3.68,3.68,0,0,1,364.8,516.31Z" transform="translate(-80 -40.5)"/><path class="cls-1" d="M402.23,550.44a2.26,2.26,0,0,1,.56,1.51q0,1.92-3,3.73a25.28,25.28,0,0,1-13.18,3.73q-9.63,0-15.18-5.81t-5.55-16a25.55,25.55,0,0,1,2.47-11.49,18.46,18.46,0,0,1,6.94-7.72,19.31,19.31,0,0,1,10.28-2.73q8.14,0,12.88,5.25t4.72,14.44a3.28,3.28,0,0,1-.69,2.3,3,3,0,0,1-2.25.73H371.39q.27,8,4.17,12.15t11,4.16a17,17,0,0,0,6.25-1,42.57,42.57,0,0,0,5.37-2.64,6.15,6.15,0,0,1,2.69-1.3A1.72,1.72,0,0,1,402.23,550.44ZM375.9,523.85q-3.63,3.82-4.33,10.67h26.8q-.18-6.93-3.47-10.71T385.62,520A12.83,12.83,0,0,0,375.9,523.85Z" transform="translate(-80 -40.5)"/><path class="cls-1" d="M438.56,519.69q3.78,4,3.78,12.06v24.71a2.74,2.74,0,0,1-.7,1.95,2.83,2.83,0,0,1-3.82,0,2.73,2.73,0,0,1-.69-1.95v-5.2a13.66,13.66,0,0,1-5.29,6,15,15,0,0,1-8,2.12,16.8,16.8,0,0,1-7.46-1.65,13.13,13.13,0,0,1-5.33-4.59,11.57,11.57,0,0,1-1.95-6.51q0-4.68,2.43-7.28t8.06-3.73a84.6,84.6,0,0,1,15.7-1.13h1.82v-3.21q0-5.71-2.34-8.37t-7.37-2.64a24,24,0,0,0-12.23,3.38l-1.35.91a3.51,3.51,0,0,1-1.86.74,1.81,1.81,0,0,1-1.43-.65,2.36,2.36,0,0,1-.56-1.61q0-1.91,3-3.73a27.1,27.1,0,0,1,6.76-2.68,29.56,29.56,0,0,1,7.38-1C432.24,515.7,436.05,517,438.56,519.69Zm-5,31.31a13.58,13.58,0,0,0,3.6-9.71v-2.87h-1.65a88.11,88.11,0,0,0-12.74.7c-3,.46-5,1.26-6.25,2.38a6.38,6.38,0,0,0-1.82,4.9,7.61,7.61,0,0,0,2.77,6,10.17,10.17,0,0,0,6.86,2.39A12.15,12.15,0,0,0,433.53,551Z" transform="translate(-80 -40.5)"/><path class="cls-1" d="M512.21,532v24.54a2.73,2.73,0,0,1-.69,2,2.52,2.52,0,0,1-1.91.74,2.64,2.64,0,0,1-1.95-.74,2.6,2.6,0,0,1-.74-2v-24.2q0-6.33-2.26-9.15c-1.5-1.87-3.9-2.82-7.19-2.82a11.35,11.35,0,0,0-9,3.82q-3.35,3.82-3.34,10.24v22.11a2.73,2.73,0,0,1-.69,2,2.52,2.52,0,0,1-1.91.74,2.54,2.54,0,0,1-2.69-2.69v-24.2q0-6.33-2.25-9.15c-1.51-1.87-3.91-2.82-7.2-2.82a11.35,11.35,0,0,0-9,3.82q-3.33,3.82-3.34,10.24v22.11a2.73,2.73,0,0,1-.69,2,2.52,2.52,0,0,1-1.91.74,2.54,2.54,0,0,1-2.69-2.69v-38a2.61,2.61,0,0,1,.74-2,2.73,2.73,0,0,1,1.95-.69,2.46,2.46,0,0,1,1.87.69,2.7,2.7,0,0,1,.65,1.91v5.2a13.19,13.19,0,0,1,5.24-5.94,15.24,15.24,0,0,1,7.94-2q10,0,12.92,8.33a13.76,13.76,0,0,1,5.55-6.12,16.57,16.57,0,0,1,8.59-2.21Q512.22,515.7,512.21,532Z" transform="translate(-80 -40.5)"/><path class="cls-1" d="M556.45,550.44A2.26,2.26,0,0,1,557,552q0,1.92-3,3.73a25.28,25.28,0,0,1-13.18,3.73q-9.63,0-15.18-5.81t-5.55-16a25.69,25.69,0,0,1,2.47-11.49,18.46,18.46,0,0,1,6.94-7.72,19.31,19.31,0,0,1,10.28-2.73q8.14,0,12.88,5.25t4.72,14.44a3.28,3.28,0,0,1-.69,2.3,3,3,0,0,1-2.25.73H525.62q.25,8,4.16,12.15t11,4.16a17,17,0,0,0,6.25-1,42.57,42.57,0,0,0,5.37-2.64,6.15,6.15,0,0,1,2.69-1.3A1.72,1.72,0,0,1,556.45,550.44Zm-26.33-26.59q-3.63,3.82-4.33,10.67h26.8q-.18-6.93-3.47-10.71T539.84,520A12.83,12.83,0,0,0,530.12,523.85Z" transform="translate(-80 -40.5)"/><path class="cls-1" d="M587.49,516.31a2,2,0,0,1,.69,1.73c0,1.45-.87,2.26-2.6,2.43l-2.61.26q-6.15.62-9.14,4.43a14,14,0,0,0-3,8.93v22.46a2.69,2.69,0,0,1-.69,2,2.55,2.55,0,0,1-1.91.7,2.7,2.7,0,0,1-2-.7,2.6,2.6,0,0,1-.74-2v-38a2.61,2.61,0,0,1,.74-2,2.73,2.73,0,0,1,2-.69,2.47,2.47,0,0,1,1.82.69,2.59,2.59,0,0,1,.7,1.91v5.63q3.56-7.46,13.18-8.15l1.21-.08A3.68,3.68,0,0,1,587.49,516.31Z" transform="translate(-80 -40.5)"/><path class="cls-1" d="M602.17,558.46a2.91,2.91,0,0,1-.69-2V502.35h-20a2.47,2.47,0,0,1-1.78-.61,2.64,2.64,0,0,1,0-3.47,2.51,2.51,0,0,1,1.78-.61h45.27a2.44,2.44,0,0,1,1.73.65,2.4,2.4,0,0,1,0,3.39,2.44,2.44,0,0,1-1.73.65h-20v54.11a2.81,2.81,0,0,1-.74,2,2.55,2.55,0,0,1-1.95.78A2.44,2.44,0,0,1,602.17,558.46Z" transform="translate(-80 -40.5)"/><path class="cls-1" d="M632.35,556.72a17.93,17.93,0,0,1-6.8-7.63,28.59,28.59,0,0,1,0-23.07,18,18,0,0,1,6.8-7.63,20.57,20.57,0,0,1,20.34,0A17.69,17.69,0,0,1,659.5,526a29.14,29.14,0,0,1,0,23.07,17.63,17.63,0,0,1-6.81,7.63,20.57,20.57,0,0,1-20.34,0Zm20.43-6.41q3.65-4.42,3.64-12.75,0-8.16-3.68-12.71a12.42,12.42,0,0,0-10.2-4.55q-6.59,0-10.23,4.55t-3.64,12.71q0,8.33,3.55,12.75c2.38,2.94,5.78,4.42,10.24,4.42S650.35,553.25,652.78,550.31Z" transform="translate(-80 -40.5)"/><path class="cls-1" d="M677,556.72a17.93,17.93,0,0,1-6.8-7.63,28.59,28.59,0,0,1,0-23.07,18,18,0,0,1,6.8-7.63,20.57,20.57,0,0,1,20.34,0,17.69,17.69,0,0,1,6.81,7.63,29.14,29.14,0,0,1,0,23.07,17.63,17.63,0,0,1-6.81,7.63,20.57,20.57,0,0,1-20.34,0Zm20.43-6.41q3.65-4.42,3.64-12.75,0-8.16-3.69-12.71a12.39,12.39,0,0,0-10.19-4.55q-6.58,0-10.23,4.55t-3.64,12.71q0,8.33,3.55,12.75t10.24,4.42Q693.77,554.73,697.42,550.31Z" transform="translate(-80 -40.5)"/><path class="cls-1" d="M715.45,558.54a2.56,2.56,0,0,1-.74-2V499.92a2.6,2.6,0,0,1,.74-2,2.73,2.73,0,0,1,1.95-.69,2.47,2.47,0,0,1,2.6,2.69v56.63a2.48,2.48,0,0,1-2.6,2.69A2.7,2.7,0,0,1,715.45,558.54Z" transform="translate(-80 -40.5)"/></svg>