<svg id="Layer_1" data-name="Layer 1" xmlns="http://www.w3.org/2000/svg" viewBox="0 0 640 100.51"><title>original-horizontal-black</title><path d="M138,249.74H84.83c-2.67,0-4.83,2.48-4.83,5.54v50.79c0,4.6,4.62,7.19,7.79,4.37l6.1-5.43a4.47,4.47,0,0,1,3-1.16h24.67c2.67,0,4.83-2.48,4.83-5.53v-4.4c0-3.06,2.16-5.53,4.83-5.53H138c2.66,0,4.82-2.48,4.82-5.54V255.28C142.79,252.22,140.63,249.74,138,249.74Zm-17.5,31.31-14.18,7.74a5.53,5.53,0,0,1-8.18-4.86V268.45a5.53,5.53,0,0,1,8.18-4.86l14.18,7.74A5.53,5.53,0,0,1,120.47,281.05Z" transform="translate(-80 -249.74)"/><path d="M181.91,288.39h-36.7c-2.66,0-4.82,2.47-4.82,5.53v4.4c0,3.05-2.16,5.53-4.83,5.53h-6.79c-2.66,0-4.82,2.48-4.82,5.53V337c0,3.05,2.16,5.53,4.82,5.53h41.12a4.47,4.47,0,0,1,3,1.16l6.1,5.43c3.17,2.82,7.79.23,7.79-4.37V293.92C186.74,290.86,184.58,288.39,181.91,288.39Zm-26,36.22a5.34,5.34,0,1,1-10.67,0V309.2a5.34,5.34,0,1,1,10.67,0Zm14.84,0a5.34,5.34,0,1,1-10.67,0V309.2a5.34,5.34,0,1,1,10.67,0Z" transform="translate(-80 -249.74)"/><path d="M223.3,323.21a6,6,0,0,1-1.78-4.57V285.82H211.7a6.87,6.87,0,0,1-4.57-1.29,4.93,4.93,0,0,1-1.5-3.94,4.78,4.78,0,0,1,1.5-3.9,7,7,0,0,1,4.57-1.26h32.61a7,7,0,0,1,4.57,1.26,4.78,4.78,0,0,1,1.5,3.9,4.93,4.93,0,0,1-1.5,3.94,6.87,6.87,0,0,1-4.57,1.29h-9.82v32.82a6,6,0,0,1-1.78,4.57,7.33,7.33,0,0,1-9.41,0Z" transform="translate(-80 -249.74)"/><path d="M270.33,323.21a6,6,0,0,1-1.78-4.57V285.82h-9.83a6.84,6.84,0,0,1-4.56-1.29,4.93,4.93,0,0,1-1.5-3.94,4.78,4.78,0,0,1,1.5-3.9,7,7,0,0,1,4.56-1.26h32.62a7,7,0,0,1,4.57,1.26,4.78,4.78,0,0,1,1.5,3.9,4.93,4.93,0,0,1-1.5,3.94,6.87,6.87,0,0,1-4.57,1.29h-9.83v32.82a6.06,6.06,0,0,1-1.77,4.57,7.33,7.33,0,0,1-9.41,0Z" transform="translate(-80 -249.74)"/><path d="M341.59,275.92a5.83,5.83,0,0,1,3.07-.84,7.12,7.12,0,0,1,4.53,1.61,5,5,0,0,1,2,4,5.43,5.43,0,0,1-.63,2.44l-18.4,38a6.45,6.45,0,0,1-2.72,2.89,8,8,0,0,1-7.8,0,6.45,6.45,0,0,1-2.72-2.89l-18.4-38a5.3,5.3,0,0,1-.56-2.44,4.91,4.91,0,0,1,2.09-4,7.39,7.39,0,0,1,4.67-1.64,6,6,0,0,1,3.1.84,5.43,5.43,0,0,1,2.2,2.51l13.73,29.69,13.66-29.69A5.47,5.47,0,0,1,341.59,275.92Z" transform="translate(-80 -249.74)"/><path d="M362.63,323.49a18.73,18.73,0,0,1-7.49-4.43,2.52,2.52,0,0,1-.91-2,2,2,0,0,1,.46-1.32,1.3,1.3,0,0,1,1-.56,2.74,2.74,0,0,1,1.6.7,23.21,23.21,0,0,0,15.26,5.43q6.35,0,9.8-2.54a8.42,8.42,0,0,0,3.45-7.21,6,6,0,0,0-1.67-4.4,11.63,11.63,0,0,0-4.26-2.61,57.86,57.86,0,0,0-6.9-1.92,66.79,66.79,0,0,1-9.23-2.58,15,15,0,0,1-6-4,10.32,10.32,0,0,1-2.44-7.22,12.51,12.51,0,0,1,2.19-7.28,14.38,14.38,0,0,1,6.17-4.92,22.56,22.56,0,0,1,9.13-1.74,26.16,26.16,0,0,1,9.07,1.57,18.28,18.28,0,0,1,7,4.5,2.78,2.78,0,0,1,.91,2,2,2,0,0,1-.45,1.32,1.3,1.3,0,0,1-1,.56,2.76,2.76,0,0,1-1.61-.7,26.46,26.46,0,0,0-6.79-4.25,19.58,19.58,0,0,0-7.15-1.18q-6.19,0-9.69,2.65a8.73,8.73,0,0,0-3.48,7.38,6.87,6.87,0,0,0,1.53,4.64,10.63,10.63,0,0,0,4,2.82,44.26,44.26,0,0,0,6.38,2l1.81.42a92.09,92.09,0,0,1,8.92,2.58,13.76,13.76,0,0,1,5.55,3.66,9.53,9.53,0,0,1,2.26,6.66,11.91,11.91,0,0,1-2.2,7.07,14.16,14.16,0,0,1-6.2,4.81,23.18,23.18,0,0,1-9.17,1.71A30.46,30.46,0,0,1,362.63,323.49Z" transform="translate(-80 -249.74)"/><path d="M412.54,323.18a1.58,1.58,0,0,1-.63,1.32,3.12,3.12,0,0,1-2,.42l-1.95-.14c-3.53-.23-6.15-1.31-7.84-3.24s-2.55-4.87-2.55-8.82V294.18h-5.3a1.87,1.87,0,0,1-1.32-.45,1.57,1.57,0,0,1-.49-1.22,1.7,1.7,0,0,1,.49-1.26,1.81,1.81,0,0,1,1.32-.49h5.3v-8.64a2.16,2.16,0,0,1,.56-1.6,2.07,2.07,0,0,1,1.53-.56,2.2,2.2,0,0,1,1.57.56,2.06,2.06,0,0,1,.59,1.6v8.64h8.44a1.9,1.9,0,0,1,1.39.49,1.7,1.7,0,0,1,.49,1.26,1.57,1.57,0,0,1-.49,1.22,2,2,0,0,1-1.39.45H401.8v18.75q0,4.32,1.68,6.17a7.56,7.56,0,0,0,5.22,2.13l1.89.13C411.89,321.5,412.54,322.11,412.54,323.18Z" transform="translate(-80 -249.74)"/><path d="M434.52,290.42a1.62,1.62,0,0,1,.56,1.39c0,1.16-.7,1.81-2.09,1.95l-2.09.21c-3.3.33-5.75,1.51-7.36,3.56a11.29,11.29,0,0,0-2.4,7.18v18.05a2.16,2.16,0,0,1-.56,1.6,2.07,2.07,0,0,1-1.53.56,2.2,2.2,0,0,1-1.57-.56,2.06,2.06,0,0,1-.59-1.6V292.23a2.06,2.06,0,0,1,.59-1.6,2.16,2.16,0,0,1,1.57-.56,1.94,1.94,0,0,1,1.46.56,2.07,2.07,0,0,1,.56,1.53v4.53c1.9-4,5.44-6.18,10.59-6.55l1-.07A2.91,2.91,0,0,1,434.52,290.42Z" transform="translate(-80 -249.74)"/><path d="M464.6,317.84a1.78,1.78,0,0,1,.46,1.22q0,1.54-2.37,3a20.35,20.35,0,0,1-10.6,3q-7.72,0-12.2-4.67t-4.46-12.83a20.58,20.58,0,0,1,2-9.23,14.77,14.77,0,0,1,5.58-6.21,15.52,15.52,0,0,1,8.26-2.19q6.54,0,10.35,4.22t3.8,11.6a2.64,2.64,0,0,1-.56,1.85,2.42,2.42,0,0,1-1.81.59H439.83q.19,6.42,3.34,9.76t8.85,3.34a13.58,13.58,0,0,0,5-.8,32.82,32.82,0,0,0,4.32-2.12,5,5,0,0,1,2.16-1.05A1.4,1.4,0,0,1,464.6,317.84Zm-21.15-21.36a14.14,14.14,0,0,0-3.49,8.57H461.5q-.13-5.57-2.79-8.6a9.34,9.34,0,0,0-7.45-3A10.3,10.3,0,0,0,443.45,296.48Z" transform="translate(-80 -249.74)"/><path d="M493.81,293.13q3,3.21,3,9.69v19.87a2.22,2.22,0,0,1-.56,1.57,2,2,0,0,1-1.53.59,2,2,0,0,1-1.54-.59,2.21,2.21,0,0,1-.55-1.57v-4.18a11,11,0,0,1-4.25,4.84,12,12,0,0,1-6.42,1.71,13.4,13.4,0,0,1-6-1.33,10.59,10.59,0,0,1-4.29-3.69,9.32,9.32,0,0,1-1.57-5.23,8.19,8.19,0,0,1,2-5.85q1.95-2.1,6.48-3a68.12,68.12,0,0,1,12.61-.91h1.47v-2.58q0-4.59-1.88-6.72c-1.26-1.42-3.23-2.13-5.93-2.13a19.29,19.29,0,0,0-9.83,2.72l-1.08.73a2.8,2.8,0,0,1-1.5.6,1.48,1.48,0,0,1-1.15-.53,1.9,1.9,0,0,1-.45-1.29c0-1,.81-2,2.44-3a22.16,22.16,0,0,1,5.44-2.17,23.8,23.8,0,0,1,5.92-.76Q490.78,289.93,493.81,293.13Zm-4.05,25.17a10.94,10.94,0,0,0,2.9-7.81v-2.3h-1.33a70.93,70.93,0,0,0-10.24.56,9.64,9.64,0,0,0-5,1.91,5.11,5.11,0,0,0-1.47,3.94,6.15,6.15,0,0,0,2.23,4.85,8.16,8.16,0,0,0,5.51,1.91A9.74,9.74,0,0,0,489.76,318.3Z" transform="translate(-80 -249.74)"/><path d="M553,303v19.73a2.22,2.22,0,0,1-.56,1.57,2,2,0,0,1-1.53.59,2.14,2.14,0,0,1-1.57-.59,2.11,2.11,0,0,1-.59-1.57V303.31q0-5.08-1.82-7.35t-5.78-2.27a9.1,9.1,0,0,0-7.22,3.07,12.08,12.08,0,0,0-2.68,8.22v17.78a2.17,2.17,0,0,1-.56,1.57,2,2,0,0,1-1.53.59,2,2,0,0,1-2.16-2.16V303.31c0-3.39-.61-5.84-1.81-7.35s-3.14-2.27-5.79-2.27a9.08,9.08,0,0,0-7.21,3.07A12,12,0,0,0,509.5,305v17.78a2.21,2.21,0,0,1-.55,1.57,2,2,0,0,1-1.54.59,2,2,0,0,1-2.16-2.16V292.23a2.1,2.1,0,0,1,.59-1.6,2.17,2.17,0,0,1,1.57-.56,1.93,1.93,0,0,1,1.5.56,2.13,2.13,0,0,1,.52,1.53v4.18a10.65,10.65,0,0,1,4.22-4.77,12.17,12.17,0,0,1,6.38-1.64q8,0,10.39,6.69a10.93,10.93,0,0,1,4.46-4.91,13.18,13.18,0,0,1,6.9-1.78Q553,289.93,553,303Z" transform="translate(-80 -249.74)"/><path d="M588.55,317.84a1.82,1.82,0,0,1,.45,1.22c0,1-.79,2-2.36,3a20.35,20.35,0,0,1-10.6,3q-7.74,0-12.2-4.67t-4.46-12.83a20.45,20.45,0,0,1,2-9.23,14.81,14.81,0,0,1,5.57-6.21,15.57,15.57,0,0,1,8.26-2.19q6.56,0,10.35,4.22t3.8,11.6a2.64,2.64,0,0,1-.55,1.85,2.44,2.44,0,0,1-1.82.59H563.77q.21,6.42,3.35,9.76t8.85,3.34a13.58,13.58,0,0,0,5-.8,32.82,32.82,0,0,0,4.32-2.12,5,5,0,0,1,2.16-1.05A1.4,1.4,0,0,1,588.55,317.84ZM567.4,296.48a14,14,0,0,0-3.49,8.57h21.54q-.13-5.57-2.79-8.6a9.36,9.36,0,0,0-7.46-3A10.29,10.29,0,0,0,567.4,296.48Z" transform="translate(-80 -249.74)"/><path d="M613.5,290.42a1.62,1.62,0,0,1,.56,1.39q0,1.74-2.1,1.95l-2.09.21c-3.3.33-5.75,1.51-7.35,3.56a11.3,11.3,0,0,0-2.41,7.18v18.05a2.16,2.16,0,0,1-.55,1.6,2.11,2.11,0,0,1-1.54.56,2.22,2.22,0,0,1-1.57-.56,2.1,2.1,0,0,1-.59-1.6V292.23a2.1,2.1,0,0,1,.59-1.6,2.17,2.17,0,0,1,1.57-.56,2,2,0,0,1,1.47.56,2.07,2.07,0,0,1,.55,1.53v4.53q2.87-6,10.6-6.55l1-.07A2.93,2.93,0,0,1,613.5,290.42Z" transform="translate(-80 -249.74)"/><path d="M625.3,324.29a2.32,2.32,0,0,1-.55-1.6v-43.5H608.64a2,2,0,0,1-1.42-.48,1.82,1.82,0,0,1-.53-1.4,1.8,1.8,0,0,1,.53-1.39,2,2,0,0,1,1.42-.49H645a1.93,1.93,0,0,1,1.39.52,1.93,1.93,0,0,1,0,2.72,1.93,1.93,0,0,1-1.39.52H629v43.5a2.22,2.22,0,0,1-.6,1.6,2,2,0,0,1-1.56.63A2,2,0,0,1,625.3,324.29Z" transform="translate(-80 -249.74)"/><path d="M649.56,322.9a14.48,14.48,0,0,1-5.47-6.14,22.9,22.9,0,0,1,0-18.54,14.45,14.45,0,0,1,5.47-6.13,16.53,16.53,0,0,1,16.34,0,14.22,14.22,0,0,1,5.48,6.13,23.45,23.45,0,0,1,0,18.54,14.25,14.25,0,0,1-5.48,6.14,16.53,16.53,0,0,1-16.34,0ZM666,317.74q2.92-3.56,2.93-10.25,0-6.54-3-10.21a11,11,0,0,0-16.42,0q-2.92,3.66-2.92,10.21t2.85,10.25q2.87,3.56,8.23,3.55T666,317.74Z" transform="translate(-80 -249.74)"/><path d="M685.44,322.9a14.5,14.5,0,0,1-5.48-6.14,23,23,0,0,1,0-18.54,14.47,14.47,0,0,1,5.48-6.13,16.53,16.53,0,0,1,16.34,0,14.2,14.2,0,0,1,5.47,6.13,23.34,23.34,0,0,1,0,18.54,14.22,14.22,0,0,1-5.47,6.14,16.53,16.53,0,0,1-16.34,0Zm16.41-5.16q2.92-3.56,2.93-10.25,0-6.54-3-10.21a11,11,0,0,0-16.42,0q-2.92,3.66-2.93,10.21t2.86,10.25q2.86,3.56,8.23,3.55A10.14,10.14,0,0,0,701.85,317.74Z" transform="translate(-80 -249.74)"/><path d="M716.34,324.36a2.1,2.1,0,0,1-.59-1.6V277.24a2.1,2.1,0,0,1,.59-1.6,2.2,2.2,0,0,1,1.57-.56,2.13,2.13,0,0,1,1.5.56,2.1,2.1,0,0,1,.59,1.6v45.52a2.1,2.1,0,0,1-.59,1.6,2.13,2.13,0,0,1-1.5.56A2.2,2.2,0,0,1,716.34,324.36Z" transform="translate(-80 -249.74)"/></svg>