<svg id="Layer_1" data-name="Layer 1" xmlns="http://www.w3.org/2000/svg" viewBox="0 0 640 602.65"><defs><style>.cls-1{fill:#fff;}</style></defs><title>logomark-white</title><path class="cls-1" d="M427.56-1.33H108.94C93-1.33,80,13.53,80,31.85V336.39c0,27.6,27.67,43.13,46.69,26.21L163.28,330a26.66,26.66,0,0,1,17.74-7H329c16,0,28.94-14.86,28.94-33.18V263.54c0-18.32,13-33.17,28.94-33.17h40.7c16,0,28.94-14.85,28.94-33.18V31.85C456.5,13.53,443.55-1.33,427.56-1.33ZM322.68,186.36l-85,46.42a33.17,33.17,0,0,1-49.07-29.12V110.82A33.17,33.17,0,0,1,237.65,81.7l85,46.42C345.72,140.7,345.72,173.78,322.68,186.36Z" transform="translate(-80 1.33)"/><path class="cls-1" d="M691.06,230.37H471c-16,0-28.94,14.85-28.94,33.17V289.9c0,18.32-13,33.18-28.94,33.18h-40.7c-16,0-28.94,14.85-28.94,33.17V521.6c0,18.32,12.95,33.17,28.94,33.17H619a26.62,26.62,0,0,1,17.74,7l36.59,32.56c19,16.91,46.69,1.38,46.69-26.21V263.54C720,245.22,707,230.37,691.06,230.37ZM535.2,447.57a32,32,0,0,1-64,0V355.16a32,32,0,0,1,64,0Zm89,0a32,32,0,0,1-64,0V355.16a32,32,0,0,1,64,0Z" transform="translate(-80 1.33)"/></svg>