<svg id="Layer_1" data-name="Layer 1" xmlns="http://www.w3.org/2000/svg" viewBox="0 0 640 507.36"><title>original-stacked-black</title><path d="M552.5,46.32h-305C230.67,46.32,217,62,217,81.25V401.87c0,29.05,29.13,45.4,49.15,27.59l38.52-34.27a28,28,0,0,1,18.68-7.34h147c16.83,0,30.47-15.64,30.47-34.92V325.18c0-19.29,13.64-34.93,30.47-34.93H552.5c16.83,0,30.47-15.64,30.47-34.93V81.25C583,62,569.33,46.32,552.5,46.32Zm-88.79,197.6-89.53,48.87c-23.27,12.7-51.66-4.14-51.66-30.66V164.39c0-26.52,28.39-43.36,51.66-30.66l89.53,48.87C488,195.84,488,230.67,463.71,243.92Z" transform="translate(-80 -46.32)"/><path d="M102.44,551.59a6.52,6.52,0,0,1-1.88-4.88V502.62H86.45q-6.45,0-6.45-5.57t6.45-5.49h41.82q6.43,0,6.44,5.49t-6.44,5.57H114.15v44.09a6.6,6.6,0,0,1-1.83,4.88,7.58,7.58,0,0,1-9.88,0Z" transform="translate(-80 -46.32)"/><path d="M160.49,551.59a6.52,6.52,0,0,1-1.88-4.88V502.62H144.5q-6.45,0-6.45-5.57t6.45-5.49h41.82q6.44,0,6.44,5.49t-6.44,5.57H172.2v44.09a6.6,6.6,0,0,1-1.83,4.88,7.58,7.58,0,0,1-9.88,0Z" transform="translate(-80 -46.32)"/><path d="M248.75,492a6.17,6.17,0,0,1,3.31-.91,7.19,7.19,0,0,1,4.71,1.74,5.37,5.37,0,0,1,2.09,4.27,6.22,6.22,0,0,1-.61,2.61l-23.53,49.66a6.88,6.88,0,0,1-2.87,3.09,8.58,8.58,0,0,1-8.37,0,6.88,6.88,0,0,1-2.87-3.09l-23.53-49.66a5.64,5.64,0,0,1-.61-2.52,5.37,5.37,0,0,1,2.18-4.36,7.62,7.62,0,0,1,4.88-1.74,6.42,6.42,0,0,1,3.36.91,5.72,5.72,0,0,1,2.3,2.75l18.65,40.77,18.64-40.77A5.84,5.84,0,0,1,248.75,492Z" transform="translate(-80 -46.32)"/><path d="M273.31,551.63a23.48,23.48,0,0,1-9.37-5.53,3.16,3.16,0,0,1-1.13-2.53,2.51,2.51,0,0,1,.57-1.65,1.6,1.6,0,0,1,1.26-.7,3.45,3.45,0,0,1,2,.87,29,29,0,0,0,19.08,6.8q7.93,0,12.24-3.18a10.54,10.54,0,0,0,4.32-9,7.43,7.43,0,0,0-2.09-5.49,14.53,14.53,0,0,0-5.32-3.27,73.43,73.43,0,0,0-8.62-2.39,85.71,85.71,0,0,1-11.55-3.23,18.89,18.89,0,0,1-7.45-5q-3-3.34-3.05-9a15.63,15.63,0,0,1,2.75-9.11,17.81,17.81,0,0,1,7.71-6.14,28.18,28.18,0,0,1,11.41-2.18,32.67,32.67,0,0,1,11.33,2,22.94,22.94,0,0,1,8.8,5.62,3.53,3.53,0,0,1,1.13,2.53,2.51,2.51,0,0,1-.57,1.65,1.6,1.6,0,0,1-1.26.7,3.45,3.45,0,0,1-2-.87,32.78,32.78,0,0,0-8.5-5.31,24.38,24.38,0,0,0-8.93-1.49q-7.76,0-12.11,3.32a10.93,10.93,0,0,0-4.35,9.23,8.53,8.53,0,0,0,1.91,5.79,13.37,13.37,0,0,0,5,3.53,55.38,55.38,0,0,0,8,2.53l2.27.52q7.05,1.74,11.15,3.22a17.22,17.22,0,0,1,6.93,4.58,11.87,11.87,0,0,1,2.83,8.32,15,15,0,0,1-2.74,8.84,17.69,17.69,0,0,1-7.76,6,28.88,28.88,0,0,1-11.46,2.14A37.83,37.83,0,0,1,273.31,551.63Z" transform="translate(-80 -46.32)"/><path d="M335.69,551.24a2,2,0,0,1-.79,1.65,3.82,3.82,0,0,1-2.52.53l-2.44-.18q-6.63-.43-9.8-4t-3.18-11V515h-6.63a2.31,2.31,0,0,1-1.65-.57,2,2,0,0,1-.61-1.53,2.09,2.09,0,0,1,.61-1.56,2.21,2.21,0,0,1,1.65-.61H317V499.92a2.73,2.73,0,0,1,.69-2,2.63,2.63,0,0,1,1.92-.7,2.76,2.76,0,0,1,2,.7,2.63,2.63,0,0,1,.74,2v10.81h10.54a2.32,2.32,0,0,1,1.74.61,2.1,2.1,0,0,1,.62,1.56,2,2,0,0,1-.62,1.53,2.43,2.43,0,0,1-1.74.57H322.27v23.43c0,3.6.7,6.18,2.09,7.71s3.57,2.43,6.54,2.66l2.35.17C334.87,549.15,335.69,549.9,335.69,551.24Z" transform="translate(-80 -46.32)"/><path d="M363.17,510.29a2,2,0,0,1,.69,1.74c0,1.46-.87,2.27-2.61,2.44l-2.61.26q-6.19.62-9.19,4.45a14.06,14.06,0,0,0-3,9v22.57a2.68,2.68,0,0,1-.7,2,2.59,2.59,0,0,1-1.91.7,2.79,2.79,0,0,1-2-.7,2.61,2.61,0,0,1-.73-2V512.56a2.64,2.64,0,0,1,.73-2,2.78,2.78,0,0,1,2-.69,2.51,2.51,0,0,1,1.83.69,2.63,2.63,0,0,1,.69,1.92v5.66q3.57-7.49,13.24-8.19l1.22-.08A3.69,3.69,0,0,1,363.17,510.29Z" transform="translate(-80 -46.32)"/><path d="M400.77,544.57a2.31,2.31,0,0,1,.56,1.53c0,1.28-1,2.53-3,3.75a25.47,25.47,0,0,1-13.24,3.74q-9.67,0-15.25-5.83t-5.57-16a25.61,25.61,0,0,1,2.48-11.54,18.42,18.42,0,0,1,7-7.75,19.37,19.37,0,0,1,10.32-2.75q8.19,0,12.94,5.27t4.75,14.51a3.27,3.27,0,0,1-.7,2.31,3,3,0,0,1-2.26.74h-29q.26,8,4.18,12.19T385,548.89a17.1,17.1,0,0,0,6.28-1,41.64,41.64,0,0,0,5.4-2.65,6.23,6.23,0,0,1,2.7-1.31A1.75,1.75,0,0,1,400.77,544.57Zm-26.44-26.7q-3.66,3.84-4.36,10.72h26.92c-.11-4.65-1.28-8.24-3.48-10.76s-5.32-3.79-9.33-3.79A12.83,12.83,0,0,0,374.33,517.87Z" transform="translate(-80 -46.32)"/><path d="M437.27,513.69q3.8,4,3.79,12.11v24.83a2.76,2.76,0,0,1-.69,2,2.54,2.54,0,0,1-1.92.74,2.51,2.51,0,0,1-1.92-.74,2.72,2.72,0,0,1-.7-2V545.4a13.73,13.73,0,0,1-5.31,6.06,15.07,15.07,0,0,1-8,2.13,16.93,16.93,0,0,1-7.49-1.65,13.36,13.36,0,0,1-5.36-4.62,11.66,11.66,0,0,1-2-6.54,10.33,10.33,0,0,1,2.44-7.31c1.63-1.75,4.33-3,8.1-3.75A85.45,85.45,0,0,1,434,528.59h1.83v-3.23q0-5.75-2.35-8.4t-7.4-2.66a24,24,0,0,0-12.29,3.4l-1.35.91a3.48,3.48,0,0,1-1.87.74,1.84,1.84,0,0,1-1.44-.65,2.37,2.37,0,0,1-.57-1.61q0-1.92,3.05-3.75a27.43,27.43,0,0,1,6.8-2.7,29.78,29.78,0,0,1,7.4-1C430.93,509.68,434.74,511,437.27,513.69Zm-5,31.45a13.65,13.65,0,0,0,3.61-9.76v-2.87h-1.65a89.41,89.41,0,0,0-12.81.69q-4.44.7-6.27,2.4a6.38,6.38,0,0,0-1.83,4.92,7.65,7.65,0,0,0,2.79,6.06,10.17,10.17,0,0,0,6.88,2.39A12.18,12.18,0,0,0,432.22,545.14Z" transform="translate(-80 -46.32)"/><path d="M511.26,526.06v24.66a2.78,2.78,0,0,1-.7,2,2.52,2.52,0,0,1-1.92.74,2.54,2.54,0,0,1-2.7-2.7V526.41q0-6.36-2.26-9.19t-7.23-2.83a11.35,11.35,0,0,0-9,3.83q-3.36,3.84-3.36,10.28v22.22a2.78,2.78,0,0,1-.69,2,2.54,2.54,0,0,1-1.92.74,2.54,2.54,0,0,1-2.7-2.7V526.41q0-6.36-2.27-9.19t-7.23-2.83a11.34,11.34,0,0,0-9,3.83q-3.36,3.84-3.36,10.28v22.22a2.74,2.74,0,0,1-.7,2,2.5,2.5,0,0,1-1.91.74,2.54,2.54,0,0,1-2.7-2.7V512.56a2.61,2.61,0,0,1,.74-2,2.74,2.74,0,0,1,2-.69,2.45,2.45,0,0,1,1.87.69,2.69,2.69,0,0,1,.65,1.92v5.23a13.18,13.18,0,0,1,5.28-6,15.23,15.23,0,0,1,8-2.05q10,0,13,8.37a13.77,13.77,0,0,1,5.57-6.15,16.63,16.63,0,0,1,8.63-2.22Q511.26,509.68,511.26,526.06Z" transform="translate(-80 -46.32)"/><path d="M555.7,544.57a2.31,2.31,0,0,1,.56,1.53q0,1.92-3,3.75a25.49,25.49,0,0,1-13.24,3.74q-9.67,0-15.25-5.83t-5.58-16a25.61,25.61,0,0,1,2.49-11.54,18.42,18.42,0,0,1,7-7.75A19.37,19.37,0,0,1,539,509.68q8.19,0,12.94,5.27t4.75,14.51a3.27,3.27,0,0,1-.7,2.31,3,3,0,0,1-2.26.74h-29q.27,8,4.18,12.19T540,548.89a17,17,0,0,0,6.27-1,40.42,40.42,0,0,0,5.4-2.65,6.25,6.25,0,0,1,2.71-1.31A1.75,1.75,0,0,1,555.7,544.57Zm-26.45-26.7q-3.66,3.84-4.35,10.72h26.92q-.18-7-3.49-10.76T539,514A12.86,12.86,0,0,0,529.25,517.87Z" transform="translate(-80 -46.32)"/><path d="M586.88,510.29a2,2,0,0,1,.69,1.74c0,1.46-.87,2.27-2.61,2.44l-2.61.26q-6.2.62-9.19,4.45a14.06,14.06,0,0,0-3,9v22.57a2.68,2.68,0,0,1-.7,2,2.59,2.59,0,0,1-1.91.7,2.79,2.79,0,0,1-2-.7,2.61,2.61,0,0,1-.73-2V512.56a2.64,2.64,0,0,1,.73-2,2.78,2.78,0,0,1,2-.69,2.51,2.51,0,0,1,1.83.69,2.63,2.63,0,0,1,.69,1.92v5.66q3.57-7.49,13.24-8.19l1.22-.08A3.69,3.69,0,0,1,586.88,510.29Z" transform="translate(-80 -46.32)"/><path d="M601.64,552.63a2.87,2.87,0,0,1-.7-2V496.26H580.81a2.48,2.48,0,0,1-1.78-.61,2.23,2.23,0,0,1-.66-1.74,2.26,2.26,0,0,1,.66-1.74,2.48,2.48,0,0,1,1.78-.61h45.48a2.45,2.45,0,0,1,1.74.65,2.41,2.41,0,0,1,0,3.4,2.41,2.41,0,0,1-1.74.65h-20v54.37a2.81,2.81,0,0,1-.74,2,2.53,2.53,0,0,1-2,.79A2.4,2.4,0,0,1,601.64,552.63Z" transform="translate(-80 -46.32)"/><path d="M632,550.89a18.1,18.1,0,0,1-6.83-7.67,28.62,28.62,0,0,1,0-23.17,18.1,18.1,0,0,1,6.83-7.67,20.67,20.67,0,0,1,20.43,0,17.68,17.68,0,0,1,6.84,7.67,29.16,29.16,0,0,1,0,23.17,17.68,17.68,0,0,1-6.84,7.67,20.67,20.67,0,0,1-20.43,0Zm20.52-6.45q3.66-4.44,3.66-12.8,0-8.19-3.7-12.77a12.44,12.44,0,0,0-10.24-4.57q-6.62,0-10.28,4.57t-3.66,12.77q0,8.36,3.57,12.8t10.28,4.45Q648.82,548.89,652.47,544.44Z" transform="translate(-80 -46.32)"/><path d="M676.8,550.89a18.06,18.06,0,0,1-6.84-7.67,28.72,28.72,0,0,1,0-23.17,18.06,18.06,0,0,1,6.84-7.67,20.67,20.67,0,0,1,20.43,0,17.8,17.8,0,0,1,6.84,7.67,29.27,29.27,0,0,1,0,23.17,17.8,17.8,0,0,1-6.84,7.67,20.67,20.67,0,0,1-20.43,0Zm20.51-6.45Q701,540,701,531.64q0-8.19-3.7-12.77A12.44,12.44,0,0,0,687,514.3q-6.62,0-10.28,4.57t-3.66,12.77q0,8.36,3.58,12.8T687,548.89Q693.66,548.89,697.31,544.44Z" transform="translate(-80 -46.32)"/><path d="M715.43,552.72a2.58,2.58,0,0,1-.74-2V493.83a2.61,2.61,0,0,1,.74-2,2.75,2.75,0,0,1,2-.7,2.48,2.48,0,0,1,2.61,2.71v56.89a2.48,2.48,0,0,1-2.61,2.7A2.75,2.75,0,0,1,715.43,552.72Z" transform="translate(-80 -46.32)"/></svg>