<svg id="Layer_1" data-name="Layer 1" xmlns="http://www.w3.org/2000/svg" xmlns:xlink="http://www.w3.org/1999/xlink" viewBox="0 0 640 122.2"><defs><style>.cls-1{fill:url(#linear-gradient);}.cls-2{fill:#202020;}</style><linearGradient id="linear-gradient" x1="80" y1="300" x2="194.5" y2="300" gradientUnits="userSpaceOnUse"><stop offset="0" stop-color="#ffbb02"/><stop offset="1" stop-color="#f15922"/></linearGradient></defs><title>original-horizontal</title><path class="cls-1" d="M185,238.9H89.53c-5.26,0-9.53,4.89-9.53,10.93V350.15c0,9.09,9.12,14.21,15.38,8.63l12.05-10.72a8.78,8.78,0,0,1,5.85-2.3h46c5.26,0,9.53-4.89,9.53-10.92v-8.69c0-6,4.27-10.93,9.54-10.93H185c5.26,0,9.53-4.89,9.53-10.92V249.83C194.5,243.79,190.23,238.9,185,238.9Zm-27.79,61.83-28,15.29A10.93,10.93,0,0,1,113,306.43V275.84a10.93,10.93,0,0,1,16.16-9.59l28,15.29A10.93,10.93,0,0,1,157.18,300.73Z" transform="translate(-80 -238.9)"/><path class="cls-2" d="M233,319.85a5.12,5.12,0,0,1-1.48-3.85V281.24H220.41q-5.08,0-5.08-4.4c0-2.88,1.69-4.33,5.08-4.33h33c3.39,0,5.08,1.45,5.08,4.33s-1.69,4.4-5.08,4.4H242.26V316a5.21,5.21,0,0,1-1.44,3.85,6,6,0,0,1-7.8,0Z" transform="translate(-80 -238.9)"/><path class="cls-2" d="M278.79,319.85a5.15,5.15,0,0,1-1.47-3.85V281.24H266.19q-5.08,0-5.09-4.4c0-2.88,1.7-4.33,5.09-4.33h33c3.39,0,5.09,1.45,5.09,4.33s-1.7,4.4-5.09,4.4H288V316a5.21,5.21,0,0,1-1.44,3.85,6,6,0,0,1-7.8,0Z" transform="translate(-80 -238.9)"/><path class="cls-2" d="M348.39,272.82a4.89,4.89,0,0,1,2.62-.72,5.68,5.68,0,0,1,3.71,1.37,4.25,4.25,0,0,1,1.64,3.37,4.84,4.84,0,0,1-.48,2.06l-18.55,39.16a5.4,5.4,0,0,1-2.26,2.44,6.76,6.76,0,0,1-6.6,0,5.42,5.42,0,0,1-2.27-2.44L307.65,278.9a4.39,4.39,0,0,1-.48-2,4.25,4.25,0,0,1,1.72-3.44,6,6,0,0,1,3.85-1.37,5,5,0,0,1,2.64.72A4.47,4.47,0,0,1,317.2,275l14.71,32.15L346.61,275A4.56,4.56,0,0,1,348.39,272.82Z" transform="translate(-80 -238.9)"/><path class="cls-2" d="M367.76,319.88a18.36,18.36,0,0,1-7.38-4.36,2.48,2.48,0,0,1-.9-2,2,2,0,0,1,.45-1.31,1.3,1.3,0,0,1,1-.55,2.76,2.76,0,0,1,1.58.69,22.85,22.85,0,0,0,15,5.36q6.26,0,9.65-2.51a8.3,8.3,0,0,0,3.4-7.11,5.84,5.84,0,0,0-1.64-4.33,11.32,11.32,0,0,0-4.2-2.58,60.81,60.81,0,0,0-6.8-1.89,67.62,67.62,0,0,1-9.1-2.54,14.81,14.81,0,0,1-5.87-3.95,10.13,10.13,0,0,1-2.41-7.11,12.28,12.28,0,0,1,2.17-7.18,14.08,14.08,0,0,1,6.08-4.84,22.13,22.13,0,0,1,9-1.72,25.64,25.64,0,0,1,8.93,1.55,18.14,18.14,0,0,1,6.94,4.43,2.77,2.77,0,0,1,.89,2,2,2,0,0,1-.45,1.31,1.3,1.3,0,0,1-1,.55,2.71,2.71,0,0,1-1.58-.69,26.18,26.18,0,0,0-6.7-4.19,19.26,19.26,0,0,0-7-1.17q-6.12,0-9.55,2.61a8.63,8.63,0,0,0-3.44,7.28,6.79,6.79,0,0,0,1.51,4.57A10.47,10.47,0,0,0,370.3,293a43.3,43.3,0,0,0,6.29,2l1.79.41c3.71.92,6.64,1.76,8.79,2.54a13.51,13.51,0,0,1,5.46,3.61,9.32,9.32,0,0,1,2.23,6.56,11.78,11.78,0,0,1-2.16,7,13.94,13.94,0,0,1-6.11,4.74,23,23,0,0,1-9,1.69A29.87,29.87,0,0,1,367.76,319.88Z" transform="translate(-80 -238.9)"/><path class="cls-2" d="M417,319.57a1.58,1.58,0,0,1-.62,1.31,3.05,3.05,0,0,1-2,.41l-1.92-.14q-5.22-.34-7.73-3.19t-2.51-8.69V291H397a1.89,1.89,0,0,1-1.31-.44,1.57,1.57,0,0,1-.48-1.21,1.67,1.67,0,0,1,.48-1.23,1.78,1.78,0,0,1,1.31-.48h5.22v-8.52a2.11,2.11,0,0,1,.55-1.58,2,2,0,0,1,1.51-.55,2.16,2.16,0,0,1,1.55.55,2.08,2.08,0,0,1,.58,1.58v8.52h8.31a1.87,1.87,0,0,1,1.38.48,1.67,1.67,0,0,1,.48,1.23,1.57,1.57,0,0,1-.48,1.21,2,2,0,0,1-1.38.44h-8.31v18.48q0,4.26,1.65,6.08a7.42,7.42,0,0,0,5.15,2.1l1.86.14C416.31,317.92,417,318.52,417,319.57Z" transform="translate(-80 -238.9)"/><path class="cls-2" d="M438.62,287.28a1.62,1.62,0,0,1,.55,1.38c0,1.14-.69,1.78-2.06,1.92l-2.06.21c-3.26.32-5.67,1.49-7.25,3.5a11.14,11.14,0,0,0-2.37,7.08v17.79a2.17,2.17,0,0,1-.55,1.58,2,2,0,0,1-1.51.55,2.16,2.16,0,0,1-1.55-.55,2.06,2.06,0,0,1-.58-1.58V289.07a2.06,2.06,0,0,1,.58-1.58,2.16,2.16,0,0,1,1.55-.55,1.94,1.94,0,0,1,1.44.55,2,2,0,0,1,.55,1.51v4.47q2.82-5.91,10.44-6.46l1-.07A2.94,2.94,0,0,1,438.62,287.28Z" transform="translate(-80 -238.9)"/><path class="cls-2" d="M468.27,314.32a1.76,1.76,0,0,1,.45,1.2c0,1-.78,2-2.34,3a20.06,20.06,0,0,1-10.44,3q-7.63,0-12-4.61t-4.4-12.64a20.17,20.17,0,0,1,2-9.1A14.49,14.49,0,0,1,447,289a15.22,15.22,0,0,1,8.14-2.17q6.47,0,10.21,4.16t3.74,11.44a2.57,2.57,0,0,1-.55,1.82,2.36,2.36,0,0,1-1.79.58H443.85q.19,6.31,3.29,9.62c2.07,2.2,5,3.3,8.73,3.3a13.66,13.66,0,0,0,4.95-.79,33.9,33.9,0,0,0,4.25-2.1,4.86,4.86,0,0,1,2.14-1A1.35,1.35,0,0,1,468.27,314.32Zm-20.85-21.06a13.86,13.86,0,0,0-3.44,8.45h21.23q-.13-5.49-2.75-8.49a9.24,9.24,0,0,0-7.35-3A10.11,10.11,0,0,0,447.42,293.26Z" transform="translate(-80 -238.9)"/><path class="cls-2" d="M497.05,290q3,3.17,3,9.55v19.58a2.16,2.16,0,0,1-.55,1.55,2.26,2.26,0,0,1-3,0,2.16,2.16,0,0,1-.55-1.55V315a10.78,10.78,0,0,1-4.19,4.77,11.79,11.79,0,0,1-6.32,1.69,13.34,13.34,0,0,1-5.91-1.31,10.35,10.35,0,0,1-4.22-3.64,9.14,9.14,0,0,1-1.55-5.15,8.14,8.14,0,0,1,1.92-5.77c1.29-1.38,3.41-2.36,6.39-3a67.47,67.47,0,0,1,12.44-.89h1.44v-2.54c0-3-.62-5.23-1.85-6.63s-3.19-2.1-5.84-2.1a19,19,0,0,0-9.69,2.68l-1.07.72a2.77,2.77,0,0,1-1.47.59,1.46,1.46,0,0,1-1.14-.52,1.84,1.84,0,0,1-.44-1.27c0-1,.8-2,2.4-2.95a21.13,21.13,0,0,1,5.36-2.13,23.24,23.24,0,0,1,5.84-.76Q494.07,286.8,497.05,290Zm-4,24.8a10.76,10.76,0,0,0,2.85-7.69V304.8h-1.3a69.22,69.22,0,0,0-10.1.55,9.53,9.53,0,0,0-4.95,1.89,5,5,0,0,0-1.44,3.88,6,6,0,0,0,2.19,4.78,8.05,8.05,0,0,0,5.43,1.89A9.6,9.6,0,0,0,493.07,314.76Z" transform="translate(-80 -238.9)"/><path class="cls-2" d="M555.4,299.72v19.44a2.16,2.16,0,0,1-.55,1.54,2,2,0,0,1-1.52.59,2.08,2.08,0,0,1-1.54-.59,2.06,2.06,0,0,1-.58-1.54V300q0-5-1.79-7.25c-1.19-1.48-3.09-2.23-5.7-2.23a9,9,0,0,0-7.12,3,11.9,11.9,0,0,0-2.64,8.11v17.52a2.12,2.12,0,0,1-.55,1.54,2,2,0,0,1-1.51.59,2.1,2.1,0,0,1-1.55-.59,2.06,2.06,0,0,1-.58-1.54V300q0-5-1.79-7.25c-1.19-1.48-3.09-2.23-5.7-2.23a9,9,0,0,0-7.11,3,11.9,11.9,0,0,0-2.64,8.11v17.52a2.16,2.16,0,0,1-.55,1.54,2,2,0,0,1-1.52.59,2.08,2.08,0,0,1-1.54-.59,2.06,2.06,0,0,1-.58-1.54V289.07a2.06,2.06,0,0,1,.58-1.58,2.14,2.14,0,0,1,1.54-.55,1.9,1.9,0,0,1,1.48.55,2.1,2.1,0,0,1,.52,1.51v4.12a10.38,10.38,0,0,1,4.15-4.7,12,12,0,0,1,6.29-1.62q7.9,0,10.24,6.6a10.85,10.85,0,0,1,4.39-4.85,13.16,13.16,0,0,1,6.8-1.75Q555.4,286.8,555.4,299.72Z" transform="translate(-80 -238.9)"/><path class="cls-2" d="M590.44,314.32a1.8,1.8,0,0,1,.44,1.2c0,1-.77,2-2.33,3a20.06,20.06,0,0,1-10.44,3q-7.64,0-12-4.61t-4.39-12.64a20.3,20.3,0,0,1,1.95-9.1,14.58,14.58,0,0,1,5.5-6.11,15.22,15.22,0,0,1,8.14-2.17q6.47,0,10.2,4.16t3.75,11.44a2.62,2.62,0,0,1-.55,1.82,2.36,2.36,0,0,1-1.79.58H566q.21,6.31,3.3,9.62t8.73,3.3a13.6,13.6,0,0,0,4.94-.79,33.33,33.33,0,0,0,4.26-2.1,4.89,4.89,0,0,1,2.13-1A1.35,1.35,0,0,1,590.44,314.32Zm-20.85-21.06a13.86,13.86,0,0,0-3.44,8.45h21.23q-.14-5.49-2.75-8.49a9.24,9.24,0,0,0-7.35-3A10.11,10.11,0,0,0,569.59,293.26Z" transform="translate(-80 -238.9)"/><path class="cls-2" d="M615,287.28a1.65,1.65,0,0,1,.55,1.38q0,1.71-2.07,1.92l-2.06.21q-4.87.48-7.24,3.5a11.15,11.15,0,0,0-2.38,7.08v17.79a2.16,2.16,0,0,1-.54,1.58,2.06,2.06,0,0,1-1.52.55,2.14,2.14,0,0,1-1.54-.55,2.07,2.07,0,0,1-.59-1.58V289.07a2.07,2.07,0,0,1,.59-1.58,2.14,2.14,0,0,1,1.54-.55,2,2,0,0,1,1.45.55,2.07,2.07,0,0,1,.55,1.51v4.47c1.87-3.94,5.36-6.1,10.44-6.46l1-.07A2.94,2.94,0,0,1,615,287.28Z" transform="translate(-80 -238.9)"/><path class="cls-2" d="M626.66,320.67a2.32,2.32,0,0,1-.55-1.58V276.22H610.24a2,2,0,0,1-1.4-.48,2.08,2.08,0,0,1,0-2.75,2,2,0,0,1,1.4-.48h35.87a1.9,1.9,0,0,1,1.37.52,1.91,1.91,0,0,1,0,2.68,1.94,1.94,0,0,1-1.37.51h-15.8v42.87a2.21,2.21,0,0,1-.59,1.58,2,2,0,0,1-1.55.62A1.93,1.93,0,0,1,626.66,320.67Z" transform="translate(-80 -238.9)"/><path class="cls-2" d="M650.57,319.3a14.31,14.31,0,0,1-5.39-6.05,22.58,22.58,0,0,1,0-18.27,14.31,14.31,0,0,1,5.39-6.05,16.3,16.3,0,0,1,16.11,0,14,14,0,0,1,5.39,6.05,23,23,0,0,1,0,18.27,14,14,0,0,1-5.39,6.05,16.3,16.3,0,0,1-16.11,0Zm16.18-5.09q2.88-3.49,2.89-10.1,0-6.45-2.92-10.06a10.87,10.87,0,0,0-16.18,0q-2.89,3.6-2.89,10.06t2.82,10.1q2.82,3.51,8.1,3.51A10,10,0,0,0,666.75,314.21Z" transform="translate(-80 -238.9)"/><path class="cls-2" d="M685.93,319.3a14.31,14.31,0,0,1-5.39-6.05,22.58,22.58,0,0,1,0-18.27,14.31,14.31,0,0,1,5.39-6.05,16.3,16.3,0,0,1,16.11,0,14,14,0,0,1,5.39,6.05,23,23,0,0,1,0,18.27A14,14,0,0,1,702,319.3a16.3,16.3,0,0,1-16.11,0Zm16.18-5.09q2.88-3.49,2.89-10.1,0-6.45-2.92-10.06a10.87,10.87,0,0,0-16.18,0q-2.89,3.6-2.89,10.06t2.82,10.1q2.82,3.51,8.11,3.51A10,10,0,0,0,702.11,314.21Z" transform="translate(-80 -238.9)"/><path class="cls-2" d="M716.39,320.74a2.06,2.06,0,0,1-.58-1.58V274.3a2,2,0,0,1,.58-1.58,2.16,2.16,0,0,1,1.55-.55,2.07,2.07,0,0,1,1.48.55,2,2,0,0,1,.58,1.58v44.86a1.95,1.95,0,0,1-2.06,2.13A2.16,2.16,0,0,1,716.39,320.74Z" transform="translate(-80 -238.9)"/></svg>